<svg width="8" height="8" viewBox="0 0 8 8" fill="none" xmlns="http://www.w3.org/2000/svg">
<path d="M0.193066 0.224152C-0.24798 0.665197 0.0828045 1.60242 1.02003 2.5672L2.03995 3.61469L0.992461 4.68974C-0.275545 5.98531 -0.303111 7.00522 0.937331 7.14305C1.54377 7.22575 1.95725 7.00522 2.72908 6.26096L3.749 5.26861L4.68622 6.23339C5.65101 7.22575 6.5331 7.44627 7.11197 6.8674C7.63571 6.34366 7.49789 5.90261 6.4504 4.7173L5.45805 3.61469L6.4504 2.51207C7.49789 1.32677 7.63571 0.88572 7.11197 0.361978C6.5331 -0.216894 5.65101 0.00362873 4.68622 0.995981L3.749 1.96077L2.75664 0.995981C1.84699 0.0863252 0.661677 -0.272025 0.193066 0.224152Z" fill="#FA0000"/>
</svg>
