<svg width="16" height="18" viewBox="0 0 16 18" fill="none" xmlns="http://www.w3.org/2000/svg">
<path d="M5.67417 0.3342C4.63113 0.765326 3.89404 1.36334 3.28212 2.28122C2.64239 3.25473 2.36424 4.3395 2.36424 5.92493V7.2044L1.75232 7.28785C1.40464 7.34348 0.959603 7.52427 0.750994 7.67725C0.0556292 8.23354 0 8.58122 0 12.5865C0 16.6475 0.0556292 16.9673 0.806623 17.5097C1.22384 17.8018 1.29338 17.8018 7.64901 17.8018C14.0046 17.8018 14.0742 17.8018 14.4914 17.5097C15.2424 16.9673 15.298 16.6475 15.298 12.5865C15.298 8.58122 15.2424 8.23354 14.547 7.67725C14.3384 7.52427 13.8934 7.34348 13.5457 7.28785L12.9338 7.2044V5.92493C12.9338 4.3395 12.6556 3.25473 12.0159 2.28122C11.0007 0.751419 9.56822 0.000425339 7.64901 0.000425339C6.73113 0.000425339 6.2861 0.0838699 5.67417 0.3342ZM8.3861 2.51764C9.02583 2.69844 9.90199 3.44943 10.208 4.08917C10.3609 4.42294 10.4305 4.96533 10.4305 5.89712V7.23222H7.64901H4.86755V5.89712C4.86755 4.39513 5.02053 3.92228 5.75762 3.21301C6.21656 2.76798 7.051 2.37857 7.57947 2.36467C7.73245 2.36467 8.09404 2.4342 8.3861 2.51764ZM8.35828 9.94414C8.84504 10.2084 9.31789 10.9176 9.31789 11.4044C9.31789 11.8355 8.87285 12.5865 8.49735 12.7951C8.24702 12.9203 8.2053 13.0733 8.2053 13.9773C8.2053 14.9647 8.02451 15.4375 7.64901 15.4375C7.27351 15.4375 7.09272 14.9647 7.09272 13.9773C7.09272 13.0733 7.051 12.9203 6.80067 12.7951C6.43908 12.6004 5.98013 11.8355 5.98013 11.4322C5.98013 10.9316 6.36954 10.3057 6.85629 10.0137C7.39868 9.6799 7.80199 9.66599 8.35828 9.94414Z" fill="#421A25"/>
</svg>
