<svg width="16" height="18" viewBox="0 0 16 18" fill="none" xmlns="http://www.w3.org/2000/svg">
<path d="M3.80596 1.14045C1.95629 1.76628 0.343046 2.3782 0.203974 2.48946C-0.0185431 2.67025 -0.0324503 2.97621 0.0370861 6.03581C0.0927153 8.91462 0.134437 9.51264 0.398676 10.3888C1.30265 13.4901 3.54172 16.1742 6.28146 17.4398C7.61656 18.0656 8.59007 17.8431 10.5093 16.5219C12.3729 15.2285 13.7775 13.4484 14.5424 11.3901C15.1404 9.8186 15.2934 8.56694 15.2934 5.35436C15.2934 2.97621 15.2656 2.64244 15.057 2.46164C14.7093 2.16959 8.08941 -0.0138569 7.57484 4.95911e-05C7.33841 4.95911e-05 5.64172 0.51462 3.80596 1.14045ZM10.2172 3.3378C11.2185 3.65767 12.206 4.00535 12.4285 4.11661L12.8179 4.32522L12.7623 6.7729C12.6927 9.49873 12.5119 10.2636 11.5245 11.8769C10.6901 13.2537 8.54835 15.1451 7.82517 15.1451C7.6861 15.1451 7.64437 13.7822 7.64437 8.83118V2.50336L8.03378 2.62853C8.24239 2.69806 9.22981 3.01793 10.2172 3.3378Z" fill="#421A25"/>
</svg>
