<svg width="18" height="18" viewBox="0 0 18 18" fill="none" xmlns="http://www.w3.org/2000/svg">
<path d="M9.95188 0.314695C8.76976 0.815357 8.07439 1.32993 7.40684 2.24781C6.57241 3.3743 6.30817 4.22264 6.30817 5.83589C6.30817 7.08755 6.33598 7.21271 6.83664 8.24185C7.3234 9.21536 7.43466 9.34053 8.00486 9.59086C8.35254 9.74384 8.79757 9.98026 9.00618 10.1193C9.27042 10.314 9.70155 10.3975 10.689 10.4392C12.0519 10.5087 12.7751 10.7452 13.0254 11.2041C13.1506 11.4127 13.234 11.4127 13.8181 11.2458C14.6664 11.0094 15.9737 10.1332 16.53 9.43788C16.7664 9.14582 17.128 8.5339 17.3366 8.08887C17.6704 7.35178 17.7121 7.12927 17.7121 5.68291C17.7121 4.19483 17.6843 4.02794 17.3088 3.24913C16.7804 2.17827 15.5843 0.982245 14.5135 0.453768C13.7764 0.106086 13.4982 0.050457 12.2188 0.0087347C10.9254 -0.0190802 10.6611 0.0087347 9.95188 0.314695ZM12.4691 2.79019C12.4969 3.08225 12.5804 3.31867 12.6499 3.31867C12.9141 3.31867 13.4704 4.00013 13.387 4.20874C13.2896 4.45907 12.7611 4.50079 12.5386 4.27827C12.4552 4.19483 12.2188 4.15311 11.9962 4.18092C11.6625 4.20874 11.579 4.29218 11.5512 4.62596C11.4956 5.07099 11.6903 5.26569 12.2049 5.26569C12.3857 5.26569 12.7333 5.4743 12.9976 5.73854C13.387 6.12794 13.4704 6.32264 13.4704 6.79549C13.4704 7.29615 13.387 7.46304 12.9837 7.85245C12.6916 8.13059 12.4969 8.43655 12.4969 8.64516C12.4969 9.04847 12.177 9.36834 11.8711 9.25708C11.7598 9.20145 11.6347 8.93721 11.579 8.64516C11.5234 8.25576 11.3704 8.04715 11.0506 7.83854C10.7585 7.64384 10.6194 7.44913 10.6194 7.21271C10.6194 6.75377 11.0923 6.68423 11.4539 7.07364C11.9545 7.61602 12.7611 7.29615 12.5804 6.60079C12.5247 6.35046 12.3578 6.2392 11.885 6.11404C11.1896 5.94715 10.5499 5.29351 10.5499 4.76503C10.5499 4.30609 10.8976 3.63854 11.2453 3.45774C11.3982 3.3743 11.5234 3.1796 11.5234 3.02662C11.5234 2.53986 11.7876 2.19218 12.1214 2.2339C12.3578 2.26172 12.4413 2.38688 12.4691 2.79019Z" fill="#421A25"/>
<path d="M4.7506 10.5496L4.15259 10.8139V14.1377V17.4755L5.02875 17.6284C5.5155 17.7119 7.49034 17.7814 9.45127 17.7814C14.2076 17.7814 13.9155 17.9205 16.4466 14.5271C17.6566 12.9 17.7817 12.6775 17.7817 12.1212C17.7817 11.3563 17.4201 10.9669 16.7248 10.9669C16.1685 10.9669 16.0433 11.0781 14.3327 13.0947C13.8182 13.7066 13.234 14.2768 13.0254 14.388C12.7473 14.5271 12.0658 14.5828 10.4943 14.5828C9.31219 14.5828 8.25524 14.541 8.13007 14.4993C7.82411 14.388 7.85193 13.9291 8.17179 13.7483C8.32478 13.6788 9.25656 13.6092 10.2579 13.6092C12.038 13.6092 12.0658 13.6092 12.344 13.2477C12.7056 12.7887 12.7195 12.3576 12.3579 11.8986C12.1076 11.5788 11.9824 11.551 10.6473 11.4953C9.3261 11.4536 9.15921 11.4119 8.68636 11.0642C8.40822 10.8417 7.96319 10.5775 7.69895 10.4662C7.00358 10.1741 5.45987 10.2159 4.7506 10.5496Z" fill="#421A25"/>
<path d="M0.147309 10.5219C0.0221436 10.6192 -0.0195783 11.4397 0.00823633 14.1795L0.0499582 17.7119L1.00956 17.7536C3.02612 17.8371 3.1791 17.5728 3.1791 14.0682C3.1791 11.2033 3.13738 11.0225 2.34466 10.6192C1.91353 10.3967 0.45327 10.3411 0.147309 10.5219Z" fill="#421A25"/>
</svg>
