<svg width="23" height="13" viewBox="0 0 23 13" fill="none" xmlns="http://www.w3.org/2000/svg">
<path d="M0.783747 0.194927C0.208999 0.525843 0.0174166 0.909008 0 1.72759V2.49392L5.10307 7.57957C8.41222 10.9061 10.3629 12.7175 10.6764 12.7871C10.9376 12.8568 11.3556 12.8568 11.6343 12.8046C11.9478 12.7175 13.8462 10.941 17.2076 7.57957L22.2933 2.49392V1.71017C22.2933 0.49101 21.405 -0.223071 20.2555 0.0730114C19.942 0.142677 18.2004 1.74501 15.4485 4.47941L11.1466 8.7639L7.00148 4.671C4.73732 2.40684 2.68216 0.421344 2.43833 0.264594C1.95066 -0.0663214 1.28883 -0.0837383 0.783747 0.194927Z" fill="black"/>
</svg>
